# xmcd CD database file
#
# Track frame offsets:
#	150
#	17239
#	30075
#	44214
#	61752
#	75067
#	87299
#	98846
#	112543
#	127845
#	149594
#	165678
#	186347
#
# Disc length: 2613 seconds
#
# Revision: 1
# Processed by: cddbd v1.4PL0 Copyright (c) Steve Scherf et al.
# Submitted via: CDex 1.40Beta8
#
DISCID=970a330d
DTITLE=Heimalanne' - Heimalanne'
DYEAR=1999
DGENRE=Country
TTITLE0=Kjedlå Vår
TTITLE1=Wg Vil Dansa
TTITLE2=Alt Eg Ønskje Å Ha
TTITLE3=Da Slo Meg
TTITLE4=Anne May
TTITLE5=Ver Deg Sjøl (Fin So Du E')
TTITLE6=Frabm Me' Stei'n
TTITLE7=End'læ Fredagskveld
TTITLE8=Endå Ei Natt
TTITLE9=Velstand Og Stas (Bød'n)
TTITLE10=Min Faste Ankringsplass
TTITLE11=Heimalanne'
TTITLE12=Fiske- og Vinsongen
EXTD=YEAR: 1999 ID3G: 2
EXTT0=
EXTT1=
EXTT2=
EXTT3=
EXTT4=
EXTT5=
EXTT6=
EXTT7=
EXTT8=
EXTT9=
EXTT10=
EXTT11=
EXTT12=
PLAYORDER=
